<svg width="828" height="380" viewBox="0 0 828 380" fill="none" xmlns="http://www.w3.org/2000/svg">
  <path d="M195.344 201.172C195.344 218.984 192.109 235.25 185.641 249.969C179.266 264.688 170.312 276.688 158.781 285.969L202.375 313.109L173.406 335.469L124.328 302.422C120.672 303.172 116.969 303.781 113.219 304.25C109.562 304.719 105.906 304.953 102.25 304.953C74.5938 304.953 52.2344 295.156 35.1719 275.562C18.2031 255.969 9.71875 231.172 9.71875 201.172V198.078C9.71875 168.266 18.2031 143.516 35.1719 123.828C52.1406 104.141 74.4531 94.2969 102.109 94.2969C129.859 94.2969 152.312 104.141 169.469 123.828C186.719 143.516 195.344 168.266 195.344 198.078V201.172ZM154.422 197.797C154.422 176.609 150.016 159.406 141.203 146.188C132.391 132.969 119.359 126.359 102.109 126.359C84.8594 126.359 71.9688 132.922 63.4375 146.047C55 159.172 50.7812 176.422 50.7812 197.797V201.172C50.7812 222.734 55.0469 240.125 63.5781 253.344C72.2031 266.469 85.0938 273.031 102.25 273.031C119.594 273.031 132.625 266.469 141.344 253.344C150.062 240.125 154.422 222.734 154.422 201.172V197.797ZM294.484 97.25V122L272.547 126.219V233.094C272.547 246.594 276.156 256.719 283.375 263.469C290.688 270.125 300.672 273.453 313.328 273.453C326.172 273.453 336.25 270.125 343.562 263.469C350.875 256.812 354.531 246.688 354.531 233.094V126.219L332.734 122V97.25H417.531V122L395.594 126.219V233.094C395.594 256.062 388 273.781 372.812 286.25C357.719 298.719 337.891 304.953 313.328 304.953C288.859 304.953 269.078 298.719 253.984 286.25C238.984 273.781 231.484 256.062 231.484 233.094V126.219L209.688 122V97.25H231.484H272.547H294.484ZM429.625 122V97.25H514.422V122L492.484 126.219V273.172L514.422 277.391V302H429.625V277.391L451.562 273.172V126.219L429.625 122ZM683.031 97.25V117.781L582.766 270.5H654.062L657.438 245.75H688.656L685.562 302H532.703V280.625L632.547 128.891H567.438L564.203 153.641H532.844L535.938 97.25H683.031Z" fill="white"/>
  <path d="M687.338 93.5099C687.338 93.5099 696.82 102.945 696.022 99.926C695.271 96.9067 682.926 79.7812 682.926 79.7812L680.062 82.3288L687.338 93.5099Z" fill="#2A4171"/>
  <path d="M678.372 93.3684L688.981 93.9345L682.926 79.7812L677.105 80.4889L678.372 93.3684Z" fill="#2A4171"/>
  <path d="M643.87 36.661C643.87 36.661 657.061 38.5481 654.62 36.6138C652.226 34.6323 632.182 28.3105 632.182 28.3105L631.337 32.0847L643.87 36.661Z" fill="#2A4171"/>
  <path d="M636.595 41.9448L645.42 36.0476L632.183 28.3105L627.911 32.3678L636.595 41.9448Z" fill="#2A4171"/>
  <path d="M414 69.9229L426.346 99.739H461.739V98.418L428.74 97.3329L415.784 69.9229H414Z" fill="#BAD3EE"/>
  <path d="M570.361 75.5356C570.361 75.5356 600.873 66.2888 603.596 63.8356C606.318 61.4295 627.63 29.1602 627.63 29.1602L645.326 36.3783C645.326 36.3783 619.321 73.507 617.631 75.3469C615.894 77.1396 594.865 88.6038 594.865 88.6038L570.361 75.5356Z" fill="#29292E"/>
  <path d="M532.15 71.7159C533.042 71.1026 549.8 65.0167 560.08 68.0832C564.352 69.357 571.299 74.5466 571.299 74.5466C571.299 74.5466 617.302 79.1228 625.422 78.2264C633.543 77.33 681.329 77.047 681.329 77.047L683.442 97.3333L534.544 96.8615L532.15 71.7159Z" fill="#282B3F"/>
  <path d="M492.955 82.5652C504.409 97.3317 545.294 97.3317 545.294 97.3317C545.294 97.3317 544.449 69.1196 543.229 65.77C542.572 63.9301 539.192 64.7793 535.155 65.6285C532.01 66.2889 528.442 66.9494 525.532 66.2889C521.401 65.3454 494.598 46.0498 494.598 46.0498C486.524 46.6631 484.412 53.8813 484.412 53.8813L484.928 63.1752L492.955 82.5652Z" fill="#FE97B5"/>
  <path d="M484.411 53.8813C483.895 52.6075 480.468 48.0785 480.468 48.0785C480.468 48.0785 475.821 50.343 472.91 46.1442C469.953 41.9454 464.085 31.7551 464.085 31.7551L469.625 22.8857L482.486 24.1595L487.321 27.7922L491.17 40.9075L494.456 46.7575L484.411 53.8813Z" fill="#D4745A"/>
  <path d="M478.403 39.9161C478.779 39.1141 477.323 41.9447 476.15 42.6996C476.15 42.6996 477.558 43.3129 478.45 42.0391C479.389 40.671 478.403 39.9161 478.403 39.9161Z" fill="#F8F6F2"/>
  <path d="M480.469 48.0781C480.469 48.0781 483.427 46.3325 485.023 42.6055C485.023 42.6055 485.68 46.5684 481.22 49.116L480.469 48.0781Z" fill="#C35F44"/>
  <path d="M489.904 32.7459C490.279 36.1426 491.781 40.483 491.781 40.483C491.781 42.087 489.387 38.36 489.387 38.36C489.387 38.36 486.712 34.9632 486.383 33.2176C486.383 33.2176 489.059 32.6515 487.228 28.3112C486.383 26.1882 482.816 26.943 483.379 29.8209L481.595 31.0947C481.595 31.0947 477.136 23.5934 473.568 27.5092C473.568 27.5092 471.55 31.2362 469.015 31.1418C466.433 31.0003 466.339 30.5285 466.339 30.5285C466.339 30.5285 466.574 33.0289 463.429 33.1233C460.237 33.2176 458.594 31.0475 458.829 29.4434C458.923 28.5471 458.97 27.5563 459.674 26.943C460.425 26.3297 461.457 26.1882 462.302 26.5184C461.223 25.9523 460.894 24.4426 461.457 23.3575C462.021 22.2725 463.194 21.612 464.415 21.4704C465.588 21.2817 466.809 21.4704 467.982 21.7063C467.654 19.7721 468.733 17.6963 470.47 16.8471C472.207 16.045 474.507 16.564 475.774 18.0737C476.009 16.4225 477.605 15.1487 479.248 15.0071C480.938 14.9128 482.581 15.762 483.661 17.0829C484.693 18.3567 485.257 20.0079 485.491 21.6592C486.148 20.5269 487.791 20.1023 489.012 20.6684C490.232 21.2346 490.983 22.5555 491.124 23.9237C491.218 25.2446 490.749 26.6128 489.998 27.7451C491.124 27.9338 492.063 28.9717 492.063 30.1039C492.063 31.2834 491.218 32.3684 490.092 32.6043L489.904 32.7459Z" fill="#4E4488"/>
  <path d="M485.21 31.8959C485.21 31.8959 485.303 31.9431 485.444 31.9431C485.585 31.9431 485.773 31.8488 485.961 31.66C486.289 31.3298 486.289 30.4806 485.961 29.7729C485.82 29.4427 485.585 29.1125 485.303 28.9238C485.069 28.6879 484.787 28.5935 484.552 28.6407C484.318 28.6879 484.224 28.8766 484.224 29.0181C484.224 29.1596 484.318 29.2068 484.271 29.254C484.271 29.254 484.177 29.2068 484.13 29.0181C484.083 28.9709 484.083 28.8294 484.13 28.735C484.224 28.5935 484.318 28.4992 484.459 28.452C484.787 28.3104 485.21 28.452 485.491 28.6879C485.773 28.9238 486.055 29.254 486.242 29.6786C486.618 30.4806 486.571 31.377 486.101 31.8488C485.867 32.0375 485.585 32.0846 485.444 32.0375C485.257 31.9903 485.21 31.9431 485.21 31.8959Z" fill="#F29685"/>
  <path d="M681.235 86.3394C681.235 86.4809 650.77 86.5753 613.217 86.5753C575.618 86.5753 545.2 86.4809 545.2 86.3394C545.2 86.1979 575.618 86.1035 613.217 86.1035C650.77 86.1035 681.235 86.1979 681.235 86.3394Z" fill="#2A4171"/>
  <path d="M559.001 81.6212C559.048 81.6212 558.86 82.4233 558.203 83.6027C557.922 84.1688 557.452 84.8293 556.936 85.537C556.372 86.1975 555.715 86.9051 554.964 87.5656C554.213 88.2261 553.415 88.745 552.617 89.1696C551.866 89.5942 551.162 89.9245 550.552 90.1604C549.284 90.585 548.486 90.6321 548.486 90.585C548.439 90.5378 549.237 90.3019 550.411 89.8301C551.021 89.5471 551.678 89.2168 552.429 88.7922C553.134 88.3676 553.885 87.8015 554.636 87.1882C555.387 86.5277 556.044 85.8672 556.607 85.2539C557.124 84.5934 557.593 83.9801 557.922 83.414C558.579 82.3289 558.907 81.5741 559.001 81.6212Z" fill="#2A4171"/>
  <path d="M675.837 77.0921L678.654 97.3313H683.442L681.33 77.0449L675.837 77.0921Z" fill="#29292E"/>
  <path d="M502.108 56.7118L487.369 56.5703C487.369 56.5703 483.567 87.3772 477.699 90.1135C466.152 95.5389 451.177 92.1421 448.596 91.4816C448.126 91.1042 447.657 90.7268 447.14 90.255C446.53 89.7832 446.061 89.1699 445.685 88.5095C445.216 87.6603 444.653 86.5752 444.512 85.8675C444.371 85.0183 443.244 84.7824 442.869 85.4901C442.54 86.1978 442.916 88.6038 444.512 90.9627C446.108 93.2744 441.836 92.0478 440.287 91.6232C438.738 91.1986 433.809 90.1135 433.293 90.4909C432.542 91.057 433.011 92.0006 434.56 92.378C436.156 92.7554 440.803 94.2179 440.522 95.0671C440.287 95.8691 432.354 93.6046 432.354 93.6046C432.354 93.6046 430.711 92.8498 430.382 93.7933C429.772 95.4917 438.409 97.2373 439.207 97.426C439.818 97.5204 439.536 98.4167 438.926 98.2752C438.315 98.1337 431.04 95.822 430.429 97.5675C429.96 98.8885 437.517 99.0772 438.738 100.398C440.005 101.719 433.011 99.6433 432.636 100.917C432.495 101.389 432.401 101.766 436.579 102.38C438.879 102.71 443.432 102.804 447.093 102.804C451.741 103.465 488.12 108.135 493.847 93.5574C500.278 77.234 502.108 56.7118 502.108 56.7118Z" fill="#D4745A"/>
  <path d="M486.477 57.373L482.675 72.7528L500.184 75.6778C500.184 75.6778 504.08 56.9955 500.841 53.2213C497.79 49.683 493.847 48.5979 490.092 51.5229C488.261 52.9854 487.04 55.0613 486.477 57.373Z" fill="#FE97B5"/>
  <path d="M694.839 227.037C694.375 225.796 693.881 220.276 693.881 220.276C693.881 220.276 698.705 218.818 698.087 213.856C697.468 208.894 695.056 197.637 695.056 197.637L685.221 194.938L676.746 204.304L675.633 210.135L681.447 222.168L682.839 228.556L694.839 227.037Z" fill="#D9A087"/>
  <path d="M695.613 206.073C695.675 206.414 695.458 206.755 695.118 206.817C694.747 206.88 694.438 206.662 694.345 206.321C694.283 205.949 694.531 205.639 694.871 205.577C695.211 205.515 695.551 205.732 695.613 206.073Z" fill="#282B3F"/>
  <path d="M696.076 205.266C696.014 205.359 695.488 205.08 694.808 205.142C694.127 205.235 693.663 205.669 693.601 205.576C693.539 205.545 693.601 205.39 693.787 205.204C694.003 205.018 694.344 204.801 694.746 204.739C695.179 204.677 695.55 204.801 695.797 204.956C696.014 205.08 696.107 205.235 696.076 205.266Z" fill="#282B3F"/>
  <path d="M687.973 206.973C688.313 207.128 688.437 207.5 688.313 207.809C688.158 208.15 687.787 208.274 687.478 208.15C687.138 207.995 687.014 207.623 687.138 207.314C687.292 206.973 687.663 206.849 687.973 206.973Z" fill="#282B3F"/>
  <path d="M688.623 206.691C688.561 206.784 688.004 206.474 687.324 206.567C686.643 206.629 686.21 207.063 686.118 207.001C686.087 206.97 686.118 206.784 686.334 206.598C686.52 206.412 686.86 206.195 687.293 206.164C687.695 206.102 688.097 206.226 688.314 206.35C688.561 206.505 688.654 206.629 688.623 206.691Z" fill="#282B3F"/>
  <path d="M692.117 211.934C692.117 211.903 692.519 211.778 693.199 211.592C693.354 211.561 693.539 211.499 693.539 211.375C693.57 211.22 693.478 211.034 693.354 210.817C693.137 210.414 692.89 209.98 692.643 209.515C692.117 208.584 691.684 207.716 691.375 207.096C691.065 206.475 690.88 206.072 690.911 206.072C690.942 206.041 691.158 206.413 691.529 207.002C691.869 207.623 692.333 208.46 692.859 209.39C693.106 209.856 693.323 210.29 693.539 210.724C693.663 210.91 693.787 211.127 693.756 211.406C693.725 211.53 693.632 211.654 693.509 211.685L693.23 211.778C692.55 211.903 692.117 211.965 692.117 211.934Z" fill="#282B3F"/>
  <path d="M690.013 212.989C689.24 212.679 692.116 213.764 693.477 213.516C693.477 213.516 692.859 214.881 691.374 214.57C689.797 214.229 690.013 212.989 690.013 212.989Z" fill="#F8F6F2"/>
  <path d="M693.88 220.277C693.88 220.277 690.571 220.928 686.983 219.315C686.983 219.315 689.117 222.634 694.004 221.517L693.88 220.277Z" fill="#B17158"/>
  <path d="M685.56 201.048C694.529 202.289 697.344 197.606 697.839 192.178C698.334 186.751 678.601 192.985 675.756 194.535C672.91 196.086 673.343 199.963 673.343 199.963L670.251 198.071C670.251 198.071 669.818 198.35 668.89 199.684C667.993 201.017 674.333 202.32 674.333 202.32C673.003 203.033 672.168 204.46 672.199 205.948C672.323 209.453 675.694 213.639 677.178 215.655C679.158 218.322 680.921 222.447 680.921 222.447C681.941 223.626 681.23 219.346 681.23 219.346C681.23 219.346 680.952 215.128 680.055 213.67C680.055 213.67 677.735 215.004 676.189 210.693C675.446 208.522 678.539 206.755 680.024 209.205L682.127 208.956C682.127 208.956 680.488 200.366 685.56 201.048Z" fill="#282B3F"/>
  <path d="M679.962 211.84L679.869 212.026C679.776 212.15 679.621 212.274 679.374 212.305C678.91 212.367 678.23 211.933 677.859 211.282C677.642 210.941 677.549 210.569 677.518 210.227C677.487 209.886 677.549 209.607 677.735 209.483C677.92 209.328 678.106 209.359 678.23 209.452L678.353 209.607C678.384 209.607 678.415 209.483 678.292 209.359C678.23 209.297 678.137 209.235 678.013 209.204C677.889 209.173 677.735 209.204 677.611 209.297C677.333 209.483 677.209 209.886 677.24 210.258C677.271 210.631 677.364 211.034 677.58 211.406C678.013 212.15 678.786 212.646 679.405 212.522C679.714 212.429 679.9 212.243 679.962 212.088C680.024 211.933 679.993 211.84 679.962 211.84Z" fill="#B17158"/>
  <path d="M748.004 235.349L746.489 232.65C746.489 232.65 747.541 231.565 746.922 229.084C746.767 228.433 746.489 227.812 746.118 227.285C745.685 226.603 745.066 225.735 744.571 225.362C743.953 224.897 744.231 223.936 744.912 223.967C745.592 223.967 747.293 225.176 748.468 227.347C749.613 229.487 750.324 225.703 750.633 224.339C750.912 222.974 751.994 218.757 752.489 218.509C753.2 218.167 753.726 218.85 753.417 220.214C753.077 221.61 752.427 225.735 753.139 225.859C753.881 225.983 755.242 218.974 755.242 218.974C755.242 218.974 755.273 217.423 756.139 217.547C757.654 217.733 755.675 225.083 755.458 225.766C755.304 226.262 756.108 226.417 756.231 225.89C756.355 225.331 757.438 218.85 758.984 219.036C760.19 219.191 757.407 225.083 757.933 226.572C758.458 228.029 759.572 221.858 760.716 222.044C761.149 222.106 761.458 222.23 760.283 225.672C759.108 229.208 754.314 238.233 754.314 238.233L747.943 235.224L748.004 235.349Z" fill="#F68973"/>
  <path d="M698.891 223.904C698.891 223.904 705.881 220.493 715.376 233.735C730.655 255.041 747.14 231.781 747.14 231.781L756.325 233.983C756.325 233.983 749.119 254.235 727.129 254.111C705.139 253.956 698.891 223.904 698.891 223.904Z" fill="#F68973"/>
  <path d="M706.035 236.217C706.035 236.217 712.623 258.887 711.911 280.255L683.333 284.535L683.395 271.975C683.395 265.958 682.22 259.973 679.869 254.421L676.189 245.645C676.189 245.645 708.076 237.147 706.035 236.217Z" fill="#66BB6A"/>
  <path d="M694.839 227.037C694.375 225.796 693.881 220.276 693.881 220.276C693.881 220.276 698.705 218.818 698.087 213.856C697.468 208.894 695.056 197.637 695.056 197.637L685.221 194.938L676.746 204.304L675.633 210.135L681.447 222.168L682.839 228.556L694.839 227.037Z" fill="#F68973"/>
  <path d="M690.013 212.989C689.24 212.679 692.116 213.764 693.477 213.516C693.477 213.516 692.859 214.881 691.374 214.57C689.797 214.229 690.013 212.989 690.013 212.989Z" fill="#F8F6F2"/>
  <path d="M693.88 220.277C693.88 220.277 690.571 220.928 686.983 219.315C686.983 219.315 689.117 222.634 694.004 221.517L693.88 220.277Z" fill="#F68973"/>
  <path d="M685.56 201.048C694.529 202.289 697.344 197.606 697.839 192.178C698.334 186.751 678.601 192.985 675.756 194.535C672.91 196.086 673.343 199.963 673.343 199.963L670.251 198.071C670.251 198.071 669.818 198.35 668.89 199.684C667.993 201.017 674.333 202.32 674.333 202.32C673.003 203.033 672.168 204.46 672.199 205.948C672.323 209.453 675.694 213.639 677.178 215.655C679.158 218.322 680.921 222.447 680.921 222.447C681.941 223.626 681.23 219.346 681.23 219.346C681.23 219.346 680.952 215.128 680.055 213.67C680.055 213.67 677.735 215.004 676.189 210.693C675.446 208.522 678.539 206.755 680.024 209.205L682.127 208.956C682.127 208.956 680.488 200.366 685.56 201.048Z" fill="#394661"/>
  <path d="M699.355 223.439L677.241 227.285C677.241 227.285 666.354 230.665 665.426 238.698L673.777 248.529L709.499 238.791L699.355 223.439Z" fill="#66BB6A"/>
  <path d="M696.57 250.42V281.526L729.911 274.889L731.736 245.489L696.57 250.42Z" fill="#8C9EFF"/>
  <path d="M668.024 233.24L677.364 247.506C677.364 247.506 671.24 261.059 671.735 264.966C672.23 268.874 695.396 263.571 695.396 263.571L696.571 273.309C696.571 273.309 667.343 289.125 660.261 276.658C654.632 266.765 660.941 247.971 663.787 240.621C664.653 238.388 665.797 236.248 667.189 234.295C667.529 233.86 667.807 233.488 668.024 233.24Z" fill="#F68973"/>
  <path d="M719.304 263.292C720.355 264.346 720.355 266.083 719.304 267.137C718.252 268.192 716.551 268.192 715.5 267.137C714.448 266.083 714.448 264.346 715.5 263.292C716.551 262.237 718.252 262.237 719.304 263.292Z" fill="#F8F6F2"/>
  <path d="M723.324 286.799C733.561 283.822 749.056 283.418 771.541 284.008C792.944 284.566 815.8 288.473 823.749 289.962C824.584 287.264 826.78 280.503 827.336 282.581C827.986 285.217 825.759 303.267 825.759 303.267L769.655 298.553L708.076 304.693L723.324 286.799Z" fill="#74ADF6"/>
  <path d="M700.065 280.906C700.065 280.906 747.448 236.465 760.005 243.784C772.562 251.072 802.593 303.98 802.593 303.98L786.479 303.515C786.479 303.515 756.974 264.5 753.355 264.407C749.736 264.314 715.808 303.639 711.57 304.352C699.385 306.368 681.23 301.158 700.065 280.906Z" fill="#8ABDFD"/>
  <path d="M797.985 303.824C797.985 303.824 809.15 306.522 806.583 307.328C804.016 308.135 785.954 306.801 785.954 306.801L786.479 303.514L797.985 303.824Z" fill="#282B3F"/>
  <path d="M714.138 304.073L722.427 303.267L714.138 304.073Z" fill="#6C98BB"/>
  <path d="M711.571 304.353C712.221 304.229 713.52 303.267 715.314 301.655C719.551 298.243 724.097 293.467 728.768 288.195C729.572 287.358 730.407 286.489 731.242 285.621L722.427 303.267L714.138 304.074L711.571 304.353Z" fill="#74ADF6"/>
  <path d="M781.284 299.669L773.398 299.017L773.274 298.862L781.161 299.514L781.284 299.669Z" fill="#6C98BB"/>
  <path d="M660.879 245.49L675.632 253.243L677.364 247.506L685.838 226.479C685.838 226.479 673.714 225.642 668.24 232.434C662.796 239.256 660.879 245.49 660.879 245.49Z" fill="#66BB6A"/>
  <path d="M695.952 224.587C695.952 224.587 703.499 220.463 709.313 226.448C715.128 232.403 718.746 236.217 718.746 236.217L707.334 242.482L695.952 224.587Z" fill="#66BB6A"/>
  <path d="M696.571 281.526L687.478 279.79L696.478 276.657L696.571 281.526Z" fill="#5A62D2"/>
  <path d="M683.333 284.535C683.333 284.535 682.962 309.81 711.571 304.352L702.354 281.526L683.333 284.535Z" fill="#8ABDFD"/>
  <path d="M823.749 289.961V303.08L825.759 303.266C825.759 303.266 829.285 283.356 827.337 282.58C825.388 281.836 823.749 289.961 823.749 289.961Z" fill="#282B3F"/>
  <path d="M693.818 266.206L695.148 263.601C695.148 263.601 696.664 263.446 698.334 261.399C698.767 260.841 699.107 260.252 699.355 259.6C699.633 258.794 699.973 257.74 699.973 257.088C699.973 256.313 700.932 255.941 701.334 256.499C701.767 257.088 701.829 259.259 700.746 261.585C699.695 263.88 703.282 262.143 704.581 261.523C705.911 260.903 710.087 259.166 710.613 259.445C711.355 259.817 711.076 260.686 709.747 261.275C708.417 261.864 704.551 263.911 704.922 264.593C705.262 265.245 711.942 262.019 711.942 262.019C711.942 262.019 713.272 261.089 713.705 261.864C714.51 263.26 707.149 266.175 706.437 266.454C705.942 266.64 706.313 267.385 706.839 267.168C707.365 266.919 713.427 263.787 714.231 265.183C714.881 266.268 708.2 267.664 707.303 268.997C706.437 270.362 712.252 267.447 712.808 268.501C713.025 268.904 713.149 269.245 709.53 270.424C705.85 271.633 696.571 273.308 696.571 273.308L693.88 266.082L693.818 266.206Z" fill="#F68973"/>
  <path d="M55.3343 165.633L57.3616 157.979C57.3616 157.979 60.1687 158.76 61.4162 157.511C62.04 157.042 62.5079 154.7 62.6638 151.263C62.6638 150.795 64.0674 151.576 64.0674 151.263C64.0674 150.483 61.5722 147.046 61.8841 145.641C62.6638 140.643 62.196 139.237 60.7925 137.832C57.5175 134.552 45.9773 134.083 44.4179 139.706C42.8584 145.328 43.3262 147.984 46.1333 155.949L44.4179 163.914L55.3343 165.633Z" fill="#F18A69"/>
  <path d="M57.5177 169.381L60.1688 162.821C60.1688 162.821 51.7476 156.886 46.1334 155.949L43.1704 160.322L57.5177 169.381Z" fill="#F5E6DC"/>
  <path d="M83.7165 311.666L86.5235 320.412C86.5235 320.412 95.7245 321.037 95.8805 321.662L82.9367 325.254L79.5059 312.759L83.7165 311.666Z" fill="#4E4488"/>
  <path d="M14.9437 326.036H7.4582L2 321.819L8.70579 310.729L12.4486 313.072L7.92604 321.194L9.32958 324.474L14.9437 326.036Z" fill="#4E4488"/>
  <path d="M64.5355 229.825L87.1481 317.914L79.6625 319.788L61.4166 272.932L48.7847 248.255L34.4375 284.959L10.7333 319.319L5.11914 315.415L24.4568 270.59L30.6947 229.825H64.5355Z" fill="#394661"/>
  <path d="M44.2624 157.511C44.2624 157.511 51.1241 159.697 54.555 163.602C58.1418 167.663 63.756 179.221 63.9119 180.626C63.9119 181.876 62.0405 196.245 62.0405 196.245L68.2785 234.198C68.2785 234.198 41.6113 238.259 28.1997 234.198L35.2174 202.804C35.2174 202.804 34.2817 191.715 33.1901 190.466C31.9425 189.216 33.9698 178.127 34.9055 173.129C35.6852 167.975 39.7399 162.196 41.1434 161.103C42.547 159.854 44.2624 157.511 44.2624 157.511Z" fill="#8ABDFD"/>
  <path d="M49.7206 244.974H49.5646C49.4087 244.818 49.4087 244.661 49.4087 244.505L53.1515 238.57C53.3074 238.414 53.4634 238.414 53.6193 238.57C53.7753 238.57 53.7753 238.883 53.7753 239.039L50.0325 244.818C49.8765 244.974 49.8765 244.974 49.7206 244.974Z" fill="#409E7C"/>
  <path d="M89.0195 184.062L93.8539 172.973L99.0002 174.535L90.8909 188.435L89.0195 184.062Z" fill="#4E4488"/>
  <path d="M81.8452 189.216L85.1201 187.03C85.1201 187.03 86.5237 184.062 87.1475 183.75C87.7713 183.594 95.7246 184.843 95.8806 185.155C96.0365 185.624 95.2568 186.561 95.2568 186.561L93.5414 187.186V188.435L92.2938 188.748C92.2938 188.748 92.1378 190.153 91.514 190.622C91.0462 191.247 84.6523 192.965 84.6523 192.965L81.8452 189.216Z" fill="#F18A69"/>
  <path d="M52.2154 168.287C53.307 168.287 54.2427 169.068 54.7105 170.005C55.3343 170.942 55.3343 172.192 55.4903 173.129C55.6462 176.253 55.9581 179.376 56.426 182.5C56.8938 185.467 57.8295 188.279 58.6092 191.246C58.7652 191.715 58.9211 192.34 59.5449 192.496C59.8568 192.652 60.3247 192.496 60.4806 192.808C61.1044 193.277 60.4806 194.37 61.1044 194.839C61.5723 194.995 62.1961 194.37 62.8199 194.526C63.1318 194.526 63.2877 194.839 63.5996 194.995C63.9115 195.307 64.6912 194.682 65.1591 194.526C66.0948 194.214 67.4983 193.589 68.434 193.121C69.9935 192.496 81.5337 186.405 81.5337 186.405L85.9002 197.025C75.7636 202.648 66.5626 207.177 55.3343 207.177C52.5273 207.021 51.1237 203.741 50.0321 201.086C46.9131 194.058 44.8858 186.561 43.6382 178.908L52.2154 168.287Z" fill="#8ABDFD"/>
  <path d="M61.1042 195.152C61.1042 195.152 60.9483 195.152 60.9483 194.995C60.4804 194.839 60.4804 194.214 60.4804 193.746C60.4804 193.434 60.4804 193.121 60.3245 192.965C60.3245 192.965 60.1685 192.965 59.8566 192.965C59.7007 192.965 59.5447 192.965 59.3888 192.809C58.6091 192.653 58.4531 191.715 58.2972 191.403C57.5174 188.436 56.5817 185.468 56.1139 182.501C55.646 179.377 55.3341 176.253 55.1782 173.286C55.0222 172.192 54.8663 171.099 54.3984 170.162C54.3984 170.006 54.3984 169.85 54.5544 169.693C54.7103 169.693 55.0222 169.693 55.0222 169.85C55.646 170.943 55.646 172.036 55.802 173.129C55.9579 176.097 56.2698 179.221 56.7377 182.344C57.2055 185.468 58.1412 188.279 58.921 191.091C59.0769 191.715 59.2328 192.028 59.5447 192.184C59.7007 192.184 59.8566 192.184 60.0126 192.184C60.1685 192.34 60.4804 192.34 60.7923 192.496C61.1042 192.809 61.1042 193.277 61.1042 193.746C61.1042 194.214 61.1042 194.371 61.2602 194.527C61.4161 194.527 61.4161 194.839 61.4161 194.995C61.2602 194.995 61.2602 195.152 61.1042 195.152Z" fill="#8C9EFF"/>
  <path d="M55.8024 207.49C55.6464 207.49 55.4905 207.49 55.3345 207.49C52.3715 207.49 50.9679 204.054 49.7204 201.399V201.243C49.5644 201.087 49.7204 200.931 49.8763 200.774C50.0323 200.774 50.1882 200.774 50.3442 201.087V201.243C51.4358 203.742 52.8393 206.709 55.3345 206.866C57.5178 206.866 59.7011 206.709 61.8843 206.397C62.0403 206.397 62.3522 206.553 62.3522 206.709C62.3522 206.866 62.1962 207.022 62.0403 207.022C60.013 207.334 57.9856 207.49 55.8024 207.49Z" fill="#8C9EFF"/>
  <path d="M86.5239 184.687C87.1477 183.75 88.0834 179.846 88.3953 179.846C88.8631 179.846 89.7988 184.063 88.5513 185.468C87.4596 186.874 86.5239 184.687 86.5239 184.687Z" fill="#F18A69"/>
  <path d="M57.0492 167.35C56.8932 167.35 56.8932 167.35 56.7373 167.35C53.6183 163.758 49.7196 160.946 45.509 158.916C45.353 158.76 45.353 158.604 45.353 158.447C45.509 158.291 45.6649 158.135 45.8209 158.291C50.1874 160.322 54.0861 163.289 57.2051 166.881C57.3611 167.038 57.3611 167.194 57.2051 167.35H57.0492Z" fill="#DFB9A0"/>
  <path d="M62.3523 141.736L53.7752 142.673C53.7752 142.673 54.399 145.172 50.8121 148.608L51.4359 151.264L50.0324 151.888C50.0324 151.888 50.3443 146.422 47.6932 146.89C45.042 147.359 48.317 153.45 48.317 153.45L46.1337 155.949C46.1337 155.949 43.3266 149.233 42.3909 147.359C41.6112 145.641 40.5195 138.925 43.4826 136.582C42.7028 135.489 43.4826 133.771 44.5742 132.99C45.5099 132.053 46.9134 131.897 48.317 132.053C49.5646 132.365 50.8121 132.834 52.0597 133.146C55.0228 134.083 57.9858 134.552 61.1047 134.396C62.8202 134.239 64.8475 134.083 66.0951 135.333C67.4986 136.582 67.1867 138.925 65.9392 140.174C64.6916 141.58 62.6642 141.892 60.7929 141.736H62.3523Z" fill="#4E4488"/>
  <path d="M301.063 249.443C301.063 249.443 259.351 222.696 245.812 234.949C232.246 247.201 213.864 290.945 213.864 290.945L222.977 297.28C222.977 297.28 253.31 251.138 259.325 251.138C265.314 251.112 299.214 267.561 299.214 267.561L301.063 249.443Z" fill="#F18A69"/>
  <path d="M213.863 290.945C213.863 290.945 203.578 286.983 205.167 289.016C206.755 291.023 221.752 299.861 221.752 299.861L223.106 296.967L213.863 290.945Z" fill="#8ABDFD"/>
  <path d="M262.11 245.792L269.271 232.992L301.062 246.679L262.11 245.792Z" fill="#A6D472"/>
  <path d="M344.597 178.691C343.633 179.838 344.128 181.611 344.883 182.914C345.638 184.192 346.654 185.495 346.654 186.981C346.654 188.806 345.17 190.318 345.039 192.117C344.883 194.28 346.68 196.001 347.643 197.93C349.414 201.528 348.034 206.377 344.597 208.488C339.936 207.054 335.458 204.917 331.422 202.179C333.427 195.61 335.432 188.988 338.582 182.888C339.936 180.255 341.524 177.726 343.269 175.328L344.597 178.691Z" fill="#653525"/>
  <path d="M319.912 198.764C319.912 198.764 311.945 194.619 304.134 208.149C292.859 227.623 273.67 206.298 273.67 206.298L264.349 208.514C264.349 208.514 271.795 227.753 292.859 227.623C313.95 227.493 319.912 198.764 319.912 198.764Z" fill="#F18A69"/>
  <path d="M335.197 223.138L331.76 234.192L325.772 255.047C316.971 256.038 306.817 251.554 296.037 248.817C302.729 240.136 307.754 230.751 308.561 219.489C308.561 219.489 305.645 215.917 308.379 214.249C311.816 212.189 313.378 209.791 313.378 209.791L335.406 219.645L335.197 223.138Z" fill="#A6D472"/>
  <path d="M323.454 199.545C324.079 198.45 325.329 193.289 325.329 193.289C325.329 193.289 320.955 191.229 322.257 186.615C323.533 182.001 327.438 171.703 327.438 171.703L337.124 170.53L342.8 180.254L334.598 202.7L323.454 199.545Z" fill="#F68973"/>
  <path d="M330.119 186.954C330.171 186.928 327.932 187.371 326.656 186.928C326.656 186.928 327.047 188.335 328.505 188.231C330.041 188.153 330.119 186.954 330.119 186.954Z" fill="#F8F6F2"/>
  <path d="M325.329 193.288C325.329 193.288 328.349 194.383 331.994 193.34C331.994 193.34 329.495 196.182 325.042 194.435L325.329 193.288Z" fill="#F68973"/>
  <path d="M340.3 187.007C340.743 187.477 341.394 187.711 342.045 187.659C342.67 187.607 343.269 187.268 343.633 186.721C343.841 186.408 343.972 185.991 343.893 185.6C343.789 185.104 343.347 184.713 342.826 184.531C342.331 184.348 341.784 184.374 341.264 184.374L340.3 187.007Z" fill="#F68973"/>
  <path d="M325.927 251.033C325.927 251.033 327.047 274.234 307.701 274.886L306.556 250.225L325.927 251.033Z" fill="#A6D472"/>
  <path d="M303.978 249.78C303.978 249.78 242.634 239.822 236.542 252.361C230.449 264.874 235.969 317.56 235.969 317.56L247.894 316.518C247.894 316.518 250.003 267.195 252.815 265.187C254.325 264.145 268.854 266.908 282.862 269.671C295.412 272.174 307.519 274.65 309.42 274.39C313.977 273.738 329.781 255.776 303.978 249.78Z" fill="#F68973"/>
  <path d="M236.983 316.649C236.983 316.649 226.282 319.23 228.73 319.986C231.203 320.768 247.711 319.543 247.711 319.543L248.127 315.085L236.983 316.649Z" fill="#8ABDFD"/>
  <path d="M274.114 206.82L272.942 204.865C272.942 204.865 272.057 203.796 270.937 201.633C270.651 201.059 270.442 200.46 270.364 199.834C270.26 199.052 270.156 198.035 270.286 197.462C270.442 196.758 269.635 196.236 269.141 196.679C268.672 197.123 268.203 199.078 268.724 201.346C269.245 203.64 266.355 201.372 265.287 200.564C264.219 199.756 260.783 197.435 260.262 197.566C259.533 197.748 259.585 198.583 260.678 199.365C261.798 200.147 264.87 202.701 264.428 203.249C263.985 203.796 258.569 199.625 258.569 199.625C258.569 199.625 257.554 198.556 257.033 199.156C256.044 200.277 262.11 204.292 262.709 204.657C263.1 204.891 262.631 205.517 262.215 205.23C261.772 204.917 256.929 200.929 255.914 202.05C255.132 202.91 260.887 205.387 261.433 206.794C261.72 207.524 260.548 206.82 259.272 206.143C258.127 205.517 256.903 204.891 256.565 205.308C256.304 205.621 256.148 205.882 259.168 207.629C262.241 209.427 271.38 212.895 271.38 212.895L274.088 206.69L274.114 206.82Z" fill="#F18A69"/>
  <path d="M312.883 210.912L318.429 198.32L322.205 198.737L333.349 201.866C333.349 201.866 340.196 203.638 341.811 206.48C343.399 209.322 336.056 223.269 336.056 223.269L312.883 210.912Z" fill="#A6D472"/>
  <path d="M337.8 203.483C337.8 203.483 352.433 206.325 343.086 229.553C333.582 253.224 294.838 248.479 294.838 248.479L294.188 239.98C294.188 239.98 326.838 236.982 332.202 227.624C337.566 218.265 337.8 203.483 337.8 203.483Z" fill="#F68973"/>
  <path d="M262.787 247.202L248.18 215.84L250.054 214.771L264.896 245.194L291.063 243.109L291.324 244.881L262.787 247.202Z" fill="#394661"/>
  <path d="M258.803 191.621L257.476 210.052L267.161 211.225L269.27 192.325L258.803 191.621Z" fill="#282B3F"/>
  <path d="M259.09 193.186L258.178 206.95L267.083 207.863L268.359 194.046L259.09 193.186Z" fill="#BAD3EE"/>
  <path d="M258.178 206.036L267.838 199.545L268.151 196.234L258.413 203.508L258.178 206.036Z" fill="#F8F6F2"/>
  <path d="M325.355 173.659C325.355 173.659 327.126 166.177 337.515 168.419C347.904 170.635 343.92 182.757 343.92 182.757L338.869 179.811L338.739 176.292L337.515 179.186L333.583 177.465L334.573 175.38L332.828 176.683L325.355 173.659Z" fill="#653525"/>
  <path d="M342.331 172.329C342.617 171.339 343.112 170.322 343.997 169.801C344.882 169.253 346.21 169.384 346.731 170.296C347.304 171.313 346.445 172.694 345.325 173.085C344.205 173.476 342.982 173.19 341.836 172.903L342.331 172.329Z" fill="#653525"/>
  <path d="M294.189 239.979C294.189 239.979 289.919 240.057 287.601 236.981C285.284 233.879 284.451 237.111 286.977 239.979C289.502 242.846 290.726 243.498 290.726 243.498C290.726 243.498 276.64 247.044 279.582 247.226C282.524 247.409 296.038 248.816 296.038 248.816L294.189 239.979Z" fill="#F18A69"/>
  <path d="M261.408 268.003L259.325 246.027C259.325 246.027 311.321 244.15 318.377 250.719C325.459 257.288 321.554 276.084 307.702 274.885C293.85 273.66 261.408 268.003 261.408 268.003Z" fill="#A6D472"/>
  <path d="M312.077 199.467L314.732 206.74L322.205 198.737C322.205 198.737 315.982 196.391 312.077 199.467Z" fill="#A6D472"/>
  <path d="M336.758 213.65L344.752 209.166C344.752 209.166 343.216 204.317 337.175 203.196C331.16 202.075 336.706 202.831 336.758 203.196C336.81 203.561 336.758 213.65 336.758 213.65Z" fill="#A6D472"/>
  <path d="M321.058 251.085C321.058 251.111 320.537 250.954 319.626 250.694C319.157 250.537 318.611 250.355 317.96 250.172C317.309 249.99 316.554 249.755 315.721 249.547C314.08 249.077 312.101 248.608 309.888 248.113C307.649 247.67 305.201 247.226 302.624 246.861C300.02 246.522 297.547 246.288 295.281 246.131C293.016 246.001 290.985 245.949 289.267 245.949C288.407 245.923 287.652 245.949 286.949 245.975C286.272 245.975 285.7 245.975 285.205 246.001C284.241 246.027 283.721 246.027 283.721 246.001C283.721 245.949 284.241 245.897 285.205 245.819C285.674 245.766 286.272 245.714 286.949 245.688C287.626 245.662 288.407 245.61 289.267 245.61C290.985 245.558 293.042 245.584 295.307 245.688C297.599 245.819 300.072 246.027 302.676 246.366C305.28 246.731 307.753 247.2 309.966 247.67C312.206 248.191 314.184 248.712 315.825 249.208C316.658 249.442 317.387 249.703 318.038 249.911C318.689 250.12 319.236 250.329 319.678 250.511C320.59 250.85 321.084 251.032 321.058 251.085Z" fill="#7579F7"/>
  <path d="M272.576 285.652L274.113 281.22L272.576 285.652ZM264.661 281.95L264.349 281.793L265.703 276.71L264.661 281.95Z" fill="#D8DAE1"/>
  <path d="M274.114 281.22C271.172 279.969 268.36 278.457 265.704 276.71L274.114 281.22Z" fill="#E0D0C3"/>
  <path d="M248.086 147.297C248.102 145.109 248.422 143.508 249.047 142.492C249.688 141.477 250.953 140.242 252.844 138.789C253.953 137.883 254.836 136.906 255.492 135.859C256.164 134.812 256.5 133.641 256.5 132.344C256.5 130.906 256.117 129.781 255.352 128.969C254.602 128.156 253.523 127.75 252.117 127.75C250.961 127.75 249.977 128.094 249.164 128.781C248.367 129.469 247.961 130.477 247.945 131.805H241.289L241.242 131.664C241.195 128.664 242.18 126.367 244.195 124.773C246.227 123.18 248.867 122.383 252.117 122.383C255.617 122.383 258.359 123.273 260.344 125.055C262.344 126.82 263.344 129.227 263.344 132.273C263.344 134.258 262.758 136.094 261.586 137.781C260.43 139.469 258.977 140.883 257.227 142.023C256.273 142.758 255.648 143.5 255.352 144.25C255.055 144.984 254.906 146 254.906 147.297H248.086ZM254.953 157H248.062V151.141H254.953V157Z" fill="#F67ECB"/>
  <path d="M475.914 205.703C475.898 207.891 475.578 209.492 474.953 210.508C474.312 211.523 473.047 212.758 471.156 214.211C470.047 215.117 469.164 216.094 468.508 217.141C467.836 218.188 467.5 219.359 467.5 220.656C467.5 222.094 467.883 223.219 468.648 224.031C469.398 224.844 470.477 225.25 471.883 225.25C473.039 225.25 474.023 224.906 474.836 224.219C475.633 223.531 476.039 222.523 476.055 221.195H482.711L482.758 221.336C482.805 224.336 481.82 226.633 479.805 228.227C477.773 229.82 475.133 230.617 471.883 230.617C468.383 230.617 465.641 229.727 463.656 227.945C461.656 226.18 460.656 223.773 460.656 220.727C460.656 218.742 461.242 216.906 462.414 215.219C463.57 213.531 465.023 212.117 466.773 210.977C467.727 210.242 468.352 209.5 468.648 208.75C468.945 208.016 469.094 207 469.094 205.703H475.914ZM469.047 196H475.938V201.859H469.047V196Z" fill="#A6D472"/>
</svg>